<svg xmlns="http://www.w3.org/2000/svg" width="21" height="21" viewBox="0 0 21 21" fill="none">
  <path d="M16.5724 14.5257L21 18.7809L19.5372 20.1871L15.1106 15.9309C13.4635 17.2001 11.4149 17.8904 9.30393 17.8876C4.16816 17.8876 0 13.8807 0 8.94378C0 4.00681 4.16816 0 9.30393 0C14.4397 0 18.6079 4.00681 18.6079 8.94378C18.6109 10.973 17.8927 12.9424 16.5724 14.5257ZM14.4986 13.7883C15.8106 12.4914 16.5433 10.7528 16.5403 8.94378C16.5403 5.10093 13.3015 1.98751 9.30393 1.98751C5.30634 1.98751 2.06754 5.10093 2.06754 8.94378C2.06754 12.7866 5.30634 15.9001 9.30393 15.9001C11.1858 15.9029 12.9944 15.1986 14.3436 13.9374L14.4986 13.7883Z" fill="currentColor"/>
</svg>
